<svg width="561.541" height="562.637" viewBox="0 0 148.574 148.864" xmlns="http://www.w3.org/2000/svg"><path d="m 3.04e-4,148.8635 c 0,-49.62143 0,-99.242851 0,-148.864276 11.461851,0 22.923701,0 34.385552,0 0,39.557365 0,79.114731 0,118.672096 24.041931,0 48.083864,0 72.125794,0 0,10.06406 0,20.12812 0,30.19218 -35.50378,0 -71.007564,0 -106.511346,0 z" fill="#3e9cdc"/><path d="m 114.18917,148.8635 c 0,-49.62143 0,-99.242851 0,-148.864276 11.46185,0 22.92371,0 34.38556,0 0,49.621425 0,99.242846 0,148.864276 -11.46185,0 -22.92371,0 -34.38556,0 z" fill="#272733"/></svg>