<?xml version="1.0" standalone="no"?>
<!DOCTYPE svg PUBLIC "-//W3C//DTD SVG 20010904//EN"
 "http://www.w3.org/TR/2001/REC-SVG-20010904/DTD/svg10.dtd">
<svg version="1.0" xmlns="http://www.w3.org/2000/svg"
 width="563.000000pt" height="563.000000pt" viewBox="0 0 563.000000 563.000000"
 preserveAspectRatio="xMidYMid meet">
<metadata>
Created by potrace 1.14, written by Peter Selinger 2001-2017
</metadata>
<g transform="translate(0.000000,563.000000) scale(0.100000,-0.100000)"
fill="#000000" stroke="none">
<path d="M0 2815 l0 -2815 2015 0 2015 0 0 570 0 570 -147 0 c-82 1 -696 1
-1365 1 l-1218 0 0 1497 c0 823 0 1833 0 2245 l0 747 -650 0 -650 0 0 -2815z"/>
<path d="M4319 5615 c-1 -31 0 -115 2 -122 1 -5 0 -12 -1 -18 -2 -9 -2 -47 1
-155 0 -25 0 -49 -1 -55 -1 -5 -1 -64 0 -130 0 -66 1 -127 0 -135 0 -37 0
-119 1 -160 0 -25 0 -49 -1 -55 -2 -14 -1 -249 1 -255 1 -3 0 -9 -1 -15 -2 -9
-1 -73 1 -125 0 -8 0 -49 -1 -90 -1 -41 -1 -79 0 -85 1 -5 1 -14 0 -20 -2 -9
-2 -47 1 -155 0 -25 0 -49 -1 -55 -1 -5 -1 -64 0 -130 0 -66 1 -127 0 -135 0
-37 0 -119 1 -160 0 -25 0 -49 -1 -55 -2 -14 -1 -249 1 -255 1 -3 0 -9 -1 -15
-2 -9 -1 -73 1 -125 0 -8 0 -49 -1 -90 -1 -41 -1 -79 0 -85 1 -5 1 -14 0 -20
-2 -9 -2 -47 1 -155 0 -25 0 -49 -1 -55 -1 -5 -1 -64 0 -130 0 -66 1 -127 0
-135 0 -37 0 -119 1 -160 0 -25 0 -49 -1 -55 -2 -14 -1 -249 1 -255 1 -3 0 -9
-1 -15 -2 -9 -1 -73 1 -125 0 -8 0 -49 -1 -90 -1 -41 -1 -79 0 -85 1 -5 1 -14
0 -20 -2 -9 -2 -47 1 -155 0 -25 0 -49 -1 -55 -1 -5 -1 -64 0 -130 0 -66 1
-127 0 -135 0 -37 0 -119 1 -160 0 -25 0 -49 -1 -55 -2 -14 -1 -249 1 -255 1
-3 0 -9 -1 -15 -2 -8 -1 -61 1 -125 0 -8 0 -51 0 -95 -1 -86 -1 -86 0 -185 0
-36 0 -71 0 -77 0 -7 0 -43 0 -80 0 -38 0 -78 0 -91 l-1 -22 650 0 650 0 0
2815 0 2815 -650 0 c-571 0 -650 -2 -651 -15z"/>
</g>
</svg>
