<svg width="18" height="21" viewBox="0 0 18 21" fill="none" xmlns="http://www.w3.org/2000/svg"><path d="m16.81 4.6-3.48-3.47A3 3 0 0 0 11.5.37h-10C.9.37.43.85.43 1.44V19.3c0 .59.48 1.07 1.07 1.07h15c.6 0 1.07-.48 1.07-1.07V6.44a3 3 0 0 0-.76-1.83ZM11.86 1.9c.19.06.38.16.45.24l3.5 3.5c.08.07.18.26.24.45h-4.2v-4.2Zm4.28 17.05H1.86V1.8h8.57v4.64c0 .6.48 1.07 1.07 1.07h4.64v11.43ZM4.71 9.3V10c0 .2.16.36.36.36h7.86c.2 0 .36-.16.36-.36V9.3c0-.2-.16-.36-.36-.36H5.07c-.2 0-.36.16-.36.36Zm8.22 2.5H5.07c-.2 0-.36.15-.36.35v.72c0 .2.16.36.36.36h7.86c.2 0 .36-.16.36-.36v-.72c0-.2-.16-.35-.36-.35Zm0 2.85H5.07c-.2 0-.36.16-.36.36v.72c0 .2.16.35.36.35h7.86c.2 0 .36-.15.36-.35V15c0-.2-.16-.36-.36-.36Z" fill="#272733"/></svg>