<svg width="21" height="20" viewBox="0 0 21 20" fill="none" xmlns="http://www.w3.org/2000/svg"><path d="M16.91 13.46c.06.38-.07.55-.2.55-.12 0-.3-.16-.51-.47-.21-.32-.28-.66-.18-.84.04-.06.1-.1.17-.13a.3.3 0 0 1 .21.02c.34.13.48.63.51.87Zm-1.89.85c.41.33.54.73.32 1a.67.67 0 0 1-.55.25 1 1 0 0 1-.62-.22c-.37-.32-.48-.83-.24-1.12a.53.53 0 0 1 .43-.17c.25 0 .48.1.66.26Zm-.68 3.23c1.76 0 3.67.58 5.8 2.4.2.18.48-.05.3-.27-2.08-2.54-4-3.03-5.92-3.44a6.36 6.36 0 0 1-4.4-3.18c-.17-.28-.24-.23-.26.13-.01.53.03 1.07.13 1.59h-.3c-1.2 0-2.37-.34-3.37-1a5.93 5.93 0 0 1-2.24-2.63 5.7 5.7 0 0 1 1.32-6.4 6.27 6.27 0 0 1 6.62-1.27 6.04 6.04 0 0 1 2.73 2.15 5.74 5.74 0 0 1 .99 3.95 9.38 9.38 0 0 0-1.93-.03c-.23.02-.2.13-.03.15 2 .35 3.4 1.55 3.71 3.74l.01.03a.06.06 0 0 0 .07.02l.02-.02a8.66 8.66 0 0 0-1.31-10.79A9.46 9.46 0 0 0 5.17 1.15a9 9 0 0 0-3.95 4.29 8.62 8.62 0 0 0-.41 5.72 8.88 8.88 0 0 0 3.28 4.78 9.4 9.4 0 0 0 5.6 1.84c1.35 0 2.69-.24 4.65-.24Z" fill="#3E9CDC"/></svg>