<svg width="40" height="43" viewBox="0 0 40 43" fill="none" xmlns="http://www.w3.org/2000/svg"><path d="M16 23.37V22.1c0-.36.27-.65.64-.65h14.14c.36 0 .64.29.64.65v1.28c0 .36-.28.65-.64.65H16.64a.63.63 0 0 1-.65-.65ZM16.64 26.59h14.14c.36 0 .64.28.64.64v1.29c0 .36-.28.64-.64.64H16.64a.63.63 0 0 1-.65-.64v-1.29c0-.36.28-.64.65-.64ZM16.64 31.73h14.14c.36 0 .64.28.64.64v1.29c0 .36-.28.64-.64.64H16.64a.63.63 0 0 1-.65-.64v-1.29c0-.36.28-.64.65-.64Z" fill="#fff"/><path fill-rule="evenodd" clip-rule="evenodd" d="M8.28 15.31a7.41 7.41 0 1 1 7.17-9.3h12.76c1.06 0 2.55.63 3.3 1.37l6.26 6.27a5.39 5.39 0 0 1 1.37 3.3v23.14c0 1.06-.87 1.93-1.93 1.93h-27a1.93 1.93 0 0 1-1.93-1.93V15.3Zm2.57-.45a7.42 7.42 0 0 0 4.81-6.27h10.62v8.35c0 1.07.86 1.93 1.93 1.93h8.35v20.57H10.85V14.86Zm18.82-5.67a2.56 2.56 0 0 0-.82-.44v7.55h7.55c-.12-.34-.3-.68-.44-.82l-6.29-6.3ZM9.27 8.9h4v-2h-4v-4h-2v4h-4v2h4v4h2v-4Z" fill="#fff"/></svg>