<svg width="19" height="18" viewBox="0 0 19 18" fill="none" xmlns="http://www.w3.org/2000/svg"><path d="M9.34 0a9.12 9.12 0 0 1 4.52 1.19l-.82.73L11.8.65 9.67 2.52 8.4 1.17 4.5 4.66 7 7.4l-.98.85 2.48 2.73-.98.85 3.54 3.9 2.1-1.9 1.82 2.03a9.07 9.07 0 0 1-5.62 1.94c-4.97 0-9.01-4-9.01-8.9a8.95 8.95 0 0 1 9-8.9ZM7.7 8.35l2.15-1.9 1.93 2.12-2.15 1.9-1.93-2.12Zm1.53 3.67 2.13-1.92 1.95 2.13-2.15 1.9-1.93-2.1Zm-3.06-7.3 2.15-1.9 1.93 2.13-2.15 1.9-1.93-2.12Zm3.94-1.01 1.6-1.43 1.44 1.58-1.6 1.44-1.44-1.6Zm2.85 6.54 1.6-1.43 1.45 1.6-1.6 1.43-1.45-1.6Zm1.41 3.22 1.6-1.43 1.45 1.58-1.6 1.44-1.45-1.6Zm.66-7.35 1.06-.95.97 1.05-1.07.96-.96-1.06Zm-1.38-3.14L14.71 2l.96 1.07-1.07.95-.96-1.05Zm2.74 6.29 1.06-.96.98 1.06-1.08.95-.96-1.05Zm-4.8-2.37 1.6-1.42 1.44 1.58-1.6 1.42-1.44-1.58Z" fill="#3E9CDC"/></svg>