<svg width="15" height="18" viewBox="0 0 15 18" fill="none" xmlns="http://www.w3.org/2000/svg"><path fill-rule="evenodd" clip-rule="evenodd" d="M.78 8.93c0-.98.08-1.6 2.14-3.13C4.62 4.54 10.07.24 10.07.24v7.18h4.15v10.34H2.08a1.3 1.3 0 0 1-1.3-1.28V8.93Z" fill="#3E9CDC"/><path fill-rule="evenodd" clip-rule="evenodd" d="M10.07 7.42v4.17l-7.62 5.14 9.64-3.1v-6.2h-2.02Z" fill="#000" fill-opacity=".2"/><path fill-rule="evenodd" clip-rule="evenodd" d="M6.59 7.2c.45-.52 1.1-.7 1.45-.4.36.29.29.96-.16 1.48-.44.53-1.1.72-1.45.42-.36-.3-.29-.97.16-1.5Z" fill="#231F20"/></svg>